<?xml version="1.0" encoding="UTF-8" standalone="no"?><svg xmlns="http://www.w3.org/2000/svg" xmlns:xlink="http://www.w3.org/1999/xlink" contentScriptType="application/ecmascript" contentStyleType="text/css" height="335px" preserveAspectRatio="none" style="width:401px;height:335px;" version="1.1" viewBox="0 0 401 335" width="401px" zoomAndPan="magnify"><defs><filter height="300%" id="f1f4aevktkns3m" width="300%" x="-1" y="-1"><feGaussianBlur result="blurOut" stdDeviation="2.0"/><feColorMatrix in="blurOut" result="blurOut2" type="matrix" values="0 0 0 0 0 0 0 0 0 0 0 0 0 0 0 0 0 0 .4 0"/><feOffset dx="4.0" dy="4.0" in="blurOut2" result="blurOut3"/><feBlend in="SourceGraphic" in2="blurOut3" mode="normal"/></filter></defs><g><text fill="#000000" font-family="sans-serif" font-size="18" lengthAdjust="spacingAndGlyphs" textLength="180" x="114" y="17.4023">Diagrama de Classes</text><!--MD5=[175f95e045c1a44aed0b30df3abe0e5c]
class Program--><rect fill="#FEFECE" filter="url(#f1f4aevktkns3m)" height="73.9102" id="Program" style="stroke: #A80036; stroke-width: 1.5;" width="138" x="129" y="29.1992"/><ellipse cx="169.65" cy="45.1992" fill="#ADD1B2" rx="11" ry="11" style="stroke: #A80036; stroke-width: 1.0;"/><path d="M172.1231,51.3423 Q171.5421,51.6411 170.9029,51.7905 Q170.2638,51.9399 169.5582,51.9399 Q167.0514,51.9399 165.7315,50.2881 Q164.4117,48.6362 164.4117,45.5151 Q164.4117,42.3857 165.7315,40.7339 Q167.0514,39.082 169.5582,39.082 Q170.2638,39.082 170.9112,39.2314 Q171.5587,39.3809 172.1231,39.6797 L172.1231,42.4023 Q171.4923,41.8213 170.8988,41.5515 Q170.3053,41.2817 169.6744,41.2817 Q168.3297,41.2817 167.6449,42.3484 Q166.9601,43.415 166.9601,45.5151 Q166.9601,47.6069 167.6449,48.6736 Q168.3297,49.7402 169.6744,49.7402 Q170.3053,49.7402 170.8988,49.4705 Q171.4923,49.2007 172.1231,48.6196 Z "/><text fill="#000000" font-family="sans-serif" font-size="12" lengthAdjust="spacingAndGlyphs" textLength="49" x="189.35" y="49.7344">Program</text><line style="stroke: #A80036; stroke-width: 1.5;" x1="130" x2="266" y1="61.1992" y2="61.1992"/><text fill="#000000" font-family="sans-serif" font-size="11" lengthAdjust="spacingAndGlyphs" textLength="80" x="135" y="75.834">Mundo window</text><line style="stroke: #A80036; stroke-width: 1.5;" x1="130" x2="266" y1="82.1543" y2="82.1543"/><text fill="#000000" font-family="sans-serif" font-size="11" lengthAdjust="spacingAndGlyphs" text-decoration="underline" textLength="126" x="135" y="96.7891">void Main(string[] args)</text><!--MD5=[919386ce46a6a5a7c71af782f732246a]
class Mundo--><rect fill="#FEFECE" filter="url(#f1f4aevktkns3m)" height="138.6855" id="Mundo" style="stroke: #A80036; stroke-width: 1.5;" width="384" x="6" y="163.1992"/><ellipse cx="174.25" cy="179.1992" fill="#ADD1B2" rx="11" ry="11" style="stroke: #A80036; stroke-width: 1.0;"/><path d="M176.7231,185.3423 Q176.1421,185.6411 175.5029,185.7905 Q174.8638,185.9399 174.1582,185.9399 Q171.6514,185.9399 170.3315,184.2881 Q169.0117,182.6362 169.0117,179.5151 Q169.0117,176.3857 170.3315,174.7339 Q171.6514,173.082 174.1582,173.082 Q174.8638,173.082 175.5112,173.2314 Q176.1587,173.3809 176.7231,173.6797 L176.7231,176.4023 Q176.0923,175.8213 175.4988,175.5515 Q174.9053,175.2817 174.2744,175.2817 Q172.9297,175.2817 172.2449,176.3484 Q171.5601,177.415 171.5601,179.5151 Q171.5601,181.6069 172.2449,182.6736 Q172.9297,183.7402 174.2744,183.7402 Q174.9053,183.7402 175.4988,183.4705 Q176.0923,183.2007 176.7231,182.6196 Z "/><text fill="#000000" font-family="sans-serif" font-size="12" lengthAdjust="spacingAndGlyphs" textLength="39" x="194.75" y="183.7344">Mundo</text><line style="stroke: #A80036; stroke-width: 1.5;" x1="7" x2="389" y1="195.1992" y2="195.1992"/><line style="stroke: #A80036; stroke-width: 1.5;" x1="7" x2="389" y1="203.1992" y2="203.1992"/><ellipse cx="17" cy="214.1992" fill="#84BE84" rx="3" ry="3" style="stroke: #038048; stroke-width: 1.0;"/><text fill="#000000" font-family="sans-serif" font-size="11" lengthAdjust="spacingAndGlyphs" textLength="148" x="26" y="217.834">Mundo(int width, int height)</text><polygon fill="#FFFF44" points="17,222.1543,21,226.1543,17,230.1543,13,226.1543" style="stroke: #B38D22; stroke-width: 1.0;"/><text fill="#000000" font-family="sans-serif" font-size="11" lengthAdjust="spacingAndGlyphs" textLength="188" x="26" y="230.7891">override void OnLoad(EventArgs e)</text><polygon fill="#FFFF44" points="17,235.1094,21,239.1094,17,243.1094,13,239.1094" style="stroke: #B38D22; stroke-width: 1.0;"/><text fill="#000000" font-family="sans-serif" font-size="11" lengthAdjust="spacingAndGlyphs" textLength="266" x="26" y="243.7441">override void OnUpdateFrame(FrameEventArgs e)</text><polygon fill="#FFFF44" points="17,248.0645,21,252.0645,17,256.0645,13,252.0645" style="stroke: #B38D22; stroke-width: 1.0;"/><text fill="#000000" font-family="sans-serif" font-size="11" lengthAdjust="spacingAndGlyphs" textLength="266" x="26" y="256.6992">override void OnRenderFrame(FrameEventArgs e)</text><rect fill="#F24D5C" height="6" style="stroke: #C82930; stroke-width: 1.0;" width="6" x="14" y="263.0195"/><text fill="#000000" font-family="sans-serif" font-size="11" lengthAdjust="spacingAndGlyphs" textLength="67" x="26" y="269.6543">void Sru3D()</text><polygon fill="#FFFF44" points="17,273.9746,21,277.9746,17,281.9746,13,277.9746" style="stroke: #B38D22; stroke-width: 1.0;"/><text fill="#000000" font-family="sans-serif" font-size="11" lengthAdjust="spacingAndGlyphs" textLength="358" x="26" y="282.6094">override void OnKeyDown(OpenTK.Input.KeyboardKeyEventArgs e)</text><polygon fill="#FFFF44" points="17,286.9297,21,290.9297,17,294.9297,13,290.9297" style="stroke: #B38D22; stroke-width: 1.0;"/><text fill="#000000" font-family="sans-serif" font-size="11" lengthAdjust="spacingAndGlyphs" textLength="288" x="26" y="295.5645">override void OnMouseMove(MouseMoveEventArgs e)</text><!--MD5=[d9aeaf8c4950536306d9fe64c6a2134e]
reverse link Program to Mundo--><path d="M198,116.937 C198,131.4596 198,147.5483 198,162.9974 " fill="none" id="Program&lt;-Mundo" style="stroke: #A80036; stroke-width: 1.0;"/><polygon fill="#FFFFFF" points="198,103.565,194,109.565,198,115.565,202,109.565,198,103.565" style="stroke: #A80036; stroke-width: 1.0;"/><text fill="#888888" font-family="sans-serif" font-size="10" lengthAdjust="spacingAndGlyphs" textLength="62" x="120.5" y="321.8672">Grupo GCG -</text><a href="http://gcg.inf.furb.br" target="_top" title="http://gcg.inf.furb.br" xlink:actuate="onRequest" xlink:href="http://gcg.inf.furb.br" xlink:show="new" xlink:title="http://gcg.inf.furb.br" xlink:type="simple"><text fill="#0000FF" font-family="sans-serif" font-size="10" lengthAdjust="spacingAndGlyphs" text-decoration="underline" textLength="102" x="185.5" y="321.8672">http://gcg.inf.furb.br</text></a><!--MD5=[242458b9145d4d2253f9998b70501e4f]
@startuml CG_N2_OpenTK

title Diagrama de Classes
footer Grupo GCG - [[http://gcg.inf.furb.br]]

Program : Mundo window
Program : {static} void Main(string[] args)
Program o-down- Mundo

Mundo : + Mundo(int width, int height)
Mundo : # override void OnLoad(EventArgs e)
Mundo : # override void OnUpdateFrame(FrameEventArgs e)
Mundo : # override void OnRenderFrame(FrameEventArgs e)
Mundo : - void Sru3D()
Mundo : # override void OnKeyDown(OpenTK.Input.KeyboardKeyEventArgs e)
Mundo : # override void OnMouseMove(MouseMoveEventArgs e)
@enduml

PlantUML version 1.2020.10(Sun May 17 06:35:57 BRT 2020)
(GPL source distribution)
Java Runtime: Java(TM) SE Runtime Environment
JVM: Java HotSpot(TM) 64-Bit Server VM
Java Version: 9+181
Operating System: Mac OS X
Default Encoding: UTF-8
Language: en
Country: BR
--></g></svg>